<mxfile host="app.diagrams.net" modified="2024-06-09T19:10:10.674Z" agent="Mozilla/5.0 (Macintosh; Intel Mac OS X 10_15_7) AppleWebKit/605.1.15 (KHTML, like Gecko) Version/17.5 Safari/605.1.15" version="24.5.2" etag="R582oqyd9KUi1gWQfkJJ" type="github">
  <diagram name="Seite-1" id="DUT1E1cRN259FkSdGQ2z">
    <mxGraphModel>
      <root>
        <mxCell id="0" />
        <mxCell id="1" parent="0" />
      </root>
    </mxGraphModel>
  </diagram>
</mxfile>
